<svg xmlns="http://www.w3.org/2000/svg" viewBox="0 0 512 512" width="512" height="512"><defs>
<radialGradient id="blue" cx="35%" cy="30%" r="72%"><stop offset="0" stop-color="#A9BED4"/><stop offset="55%" stop-color="#4C6A8C"/><stop offset="1" stop-color="#263C56"/></radialGradient>
<radialGradient id="moon" cx="38%" cy="32%" r="75%"><stop offset="0" stop-color="#5A7596"/><stop offset="50%" stop-color="#2B4260"/><stop offset="1" stop-color="#15202E"/></radialGradient>
<radialGradient id="sun" cx="35%" cy="30%" r="72%"><stop offset="0" stop-color="#E3A08F"/><stop offset="50%" stop-color="#B0392B"/><stop offset="1" stop-color="#6E140D"/></radialGradient>
<radialGradient id="corona" cx="50%" cy="50%" r="50%"><stop offset="0.52" stop-color="#F4EEDF" stop-opacity="1"/><stop offset="0.62" stop-color="#E9C9B8" stop-opacity=".9"/><stop offset="0.78" stop-color="#B85A4A" stop-opacity=".35"/><stop offset="1" stop-color="#8E1B12" stop-opacity="0"/></radialGradient>
<linearGradient id="cone" x1="0" y1="0" x2="1" y2="0"><stop offset="0" stop-color="#8E1B12" stop-opacity=".55"/><stop offset="1" stop-color="#8E1B12" stop-opacity=".15"/></linearGradient>
<clipPath id="frame"><rect x="97" y="97" width="318" height="318"/></clipPath>
</defs><rect width="512" height="512" fill="#DEDCD2"/><g stroke="#B0BCC8" stroke-width="2.6" opacity=".85"><line x1="97" y1="154" x2="415" y2="154"/><line x1="97" y1="211" x2="415" y2="211"/><line x1="97" y1="268" x2="415" y2="268"/><line x1="97" y1="326" x2="415" y2="326"/><line x1="97" y1="383" x2="415" y2="383"/><line x1="176" y1="97" x2="176" y2="415"/><line x1="256" y1="97" x2="256" y2="415"/><line x1="336" y1="97" x2="336" y2="415"/></g><g clip-path="url(#frame)"><circle cx="256" cy="256" r="150" fill="url(#corona)"/></g><line x1="348.0" y1="256.0" x2="368.0" y2="256.0" stroke="#8E1B12" stroke-width="3" stroke-linecap="round" opacity=".55"/><line x1="340.99691699103835" y1="291.20687577758827" x2="374.25658016144473" y2="304.98347934273147" stroke="#8E1B12" stroke-width="3" stroke-linecap="round" opacity=".55"/><line x1="321.0538238691624" y1="321.0538238691624" x2="335.19595949289334" y2="335.1959594928933" stroke="#8E1B12" stroke-width="3" stroke-linecap="round" opacity=".55"/><line x1="291.20687577758827" y1="340.99691699103835" x2="304.98347934273147" y2="374.25658016144473" stroke="#8E1B12" stroke-width="3" stroke-linecap="round" opacity=".55"/><line x1="256.0" y1="348.0" x2="256.0" y2="368.0" stroke="#8E1B12" stroke-width="3" stroke-linecap="round" opacity=".55"/><line x1="220.79312422241173" y1="340.99691699103835" x2="207.01652065726853" y2="374.25658016144473" stroke="#8E1B12" stroke-width="3" stroke-linecap="round" opacity=".55"/><line x1="190.9461761308376" y1="321.0538238691624" x2="176.8040405071067" y2="335.19595949289334" stroke="#8E1B12" stroke-width="3" stroke-linecap="round" opacity=".55"/><line x1="171.00308300896162" y1="291.20687577758827" x2="137.7434198385553" y2="304.9834793427315" stroke="#8E1B12" stroke-width="3" stroke-linecap="round" opacity=".55"/><line x1="164.0" y1="256.0" x2="144.0" y2="256.0" stroke="#8E1B12" stroke-width="3" stroke-linecap="round" opacity=".55"/><line x1="171.0030830089616" y1="220.79312422241173" x2="137.74341983855527" y2="207.01652065726853" stroke="#8E1B12" stroke-width="3" stroke-linecap="round" opacity=".55"/><line x1="190.9461761308376" y1="190.9461761308376" x2="176.80404050710666" y2="176.8040405071067" stroke="#8E1B12" stroke-width="3" stroke-linecap="round" opacity=".55"/><line x1="220.79312422241168" y1="171.00308300896165" x2="207.01652065726844" y2="137.74341983855533" stroke="#8E1B12" stroke-width="3" stroke-linecap="round" opacity=".55"/><line x1="255.99999999999997" y1="164.0" x2="255.99999999999997" y2="144.0" stroke="#8E1B12" stroke-width="3" stroke-linecap="round" opacity=".55"/><line x1="291.20687577758827" y1="171.00308300896162" x2="304.9834793427315" y2="137.74341983855533" stroke="#8E1B12" stroke-width="3" stroke-linecap="round" opacity=".55"/><line x1="321.05382386916233" y1="190.9461761308376" x2="335.1959594928933" y2="176.80404050710666" stroke="#8E1B12" stroke-width="3" stroke-linecap="round" opacity=".55"/><line x1="340.99691699103835" y1="220.79312422241168" x2="374.2565801614447" y2="207.01652065726842" stroke="#8E1B12" stroke-width="3" stroke-linecap="round" opacity=".55"/><circle cx="256" cy="256" r="80" fill="url(#moon)" stroke="#14161A" stroke-width="1.5"/><rect x="97" y="97" width="318" height="318" fill="none" stroke="#46617E" stroke-width="5"/></svg>