<svg xmlns="http://www.w3.org/2000/svg" viewBox="0 0 512 512" width="512" height="512"><defs>
<radialGradient id="blue" cx="35%" cy="30%" r="72%"><stop offset="0" stop-color="#A9BED4"/><stop offset="55%" stop-color="#4C6A8C"/><stop offset="1" stop-color="#263C56"/></radialGradient>
<radialGradient id="moon" cx="38%" cy="32%" r="75%"><stop offset="0" stop-color="#5A7596"/><stop offset="50%" stop-color="#2B4260"/><stop offset="1" stop-color="#15202E"/></radialGradient>
<radialGradient id="sun" cx="35%" cy="30%" r="72%"><stop offset="0" stop-color="#E3A08F"/><stop offset="50%" stop-color="#B0392B"/><stop offset="1" stop-color="#6E140D"/></radialGradient>
<radialGradient id="corona" cx="50%" cy="50%" r="50%"><stop offset="0.52" stop-color="#F4EEDF" stop-opacity="1"/><stop offset="0.62" stop-color="#E9C9B8" stop-opacity=".9"/><stop offset="0.78" stop-color="#B85A4A" stop-opacity=".35"/><stop offset="1" stop-color="#8E1B12" stop-opacity="0"/></radialGradient>
<linearGradient id="cone" x1="0" y1="0" x2="1" y2="0"><stop offset="0" stop-color="#8E1B12" stop-opacity=".55"/><stop offset="1" stop-color="#8E1B12" stop-opacity=".15"/></linearGradient>
<clipPath id="frame"><rect x="97" y="97" width="318" height="318"/></clipPath>
</defs><rect width="512" height="512" fill="#DEDCD2"/><g stroke="#B0BCC8" stroke-width="2.6" opacity=".85"><line x1="97" y1="154" x2="415" y2="154"/><line x1="97" y1="211" x2="415" y2="211"/><line x1="97" y1="268" x2="415" y2="268"/><line x1="97" y1="326" x2="415" y2="326"/><line x1="97" y1="383" x2="415" y2="383"/><line x1="176" y1="97" x2="176" y2="415"/><line x1="256" y1="97" x2="256" y2="415"/><line x1="336" y1="97" x2="336" y2="415"/></g><g clip-path="url(#frame)"><path d="M 70 360 C 170 330, 250 220, 450 150" fill="none" stroke="#8E1B12" stroke-width="46" opacity=".28"/><path d="M 70 360 C 170 330, 250 220, 450 150" fill="none" stroke="#8E1B12" stroke-width="4" opacity=".9"/></g><circle cx="262" cy="248" r="62" fill="url(#corona)"/><circle cx="262" cy="248" r="34" fill="url(#moon)" stroke="#14161A" stroke-width="1.5"/><rect x="97" y="97" width="318" height="318" fill="none" stroke="#46617E" stroke-width="5"/></svg>